<svg xmlns="http://www.w3.org/2000/svg" viewBox="0 0 200 200">
    <style>
        .family { fill: #1a237e; }
        .background { fill: #e3f2fd; }
    </style>
    <circle class="background" cx="100" cy="100" r="100"/>
    <path class="family" d="M60,80 C60,66.7 70.7,56 84,56 C97.3,56 108,66.7 108,80 C108,93.3 97.3,104 84,104 C70.7,104 60,93.3 60,80z M116,120 L52,120 C52,103.4 65.4,90 82,90 C98.6,90 112,103.4 112,120z M92,76 C92,69.4 97.4,64 104,64 C110.6,64 116,69.4 116,76 C116,82.6 110.6,88 104,88 C97.4,88 92,82.6 92,76z M124,108 L84,108 C84,98.1 92.1,90 102,90 C111.9,90 120,98.1 120,108z"/>
</svg> 